<mxfile host="app.diagrams.net" modified="2023-06-09T12:45:51.690Z" agent="Mozilla/5.0 (Windows NT 10.0; Win64; x64) AppleWebKit/537.36 (KHTML, like Gecko) Chrome/113.0.0.0 Safari/537.36" etag="b98XtcyriVVALWUz9NRE" version="21.3.7" type="device">
  <diagram id="27HcMeHQ9Vk8HcgmzzvS" name="第 1 页">
    <mxGraphModel dx="911" dy="474" grid="1" gridSize="10" guides="1" tooltips="1" connect="1" arrows="1" fold="1" page="1" pageScale="1" pageWidth="827" pageHeight="1169" math="1" shadow="0">
      <root>
        <mxCell id="0" />
        <mxCell id="1" parent="0" />
        <mxCell id="vxSceUtqSG5UeswM3cWj-3" style="edgeStyle=orthogonalEdgeStyle;rounded=0;orthogonalLoop=1;jettySize=auto;html=1;exitX=1;exitY=0.5;exitDx=0;exitDy=0;fontFamily=Times New Roman;fontSize=24;" parent="1" source="vxSceUtqSG5UeswM3cWj-1" edge="1">
          <mxGeometry relative="1" as="geometry">
            <mxPoint x="720" y="190" as="targetPoint" />
            <mxPoint x="660" y="190" as="sourcePoint" />
          </mxGeometry>
        </mxCell>
        <mxCell id="vxSceUtqSG5UeswM3cWj-1" value="&lt;font style=&quot;font-size: 24px;&quot; face=&quot;Times New Roman&quot;&gt;Execution&lt;/font&gt;" style="rounded=0;whiteSpace=wrap;html=1;" parent="1" vertex="1">
          <mxGeometry x="560" y="170" width="105" height="40" as="geometry" />
        </mxCell>
        <mxCell id="vxSceUtqSG5UeswM3cWj-4" value="&lt;font style=&quot;font-size: 20px;&quot;&gt;$$ y(k) $$&lt;/font&gt;" style="text;html=1;align=center;verticalAlign=middle;resizable=0;points=[];autosize=1;strokeColor=none;fillColor=none;fontSize=24;fontFamily=Times New Roman;" parent="1" vertex="1">
          <mxGeometry x="640" y="150" width="110" height="40" as="geometry" />
        </mxCell>
        <mxCell id="vxSceUtqSG5UeswM3cWj-8" value="&lt;font style=&quot;font-size: 20px;&quot;&gt;$$ u(k) $$&lt;/font&gt;" style="text;html=1;align=center;verticalAlign=middle;resizable=0;points=[];autosize=1;strokeColor=none;fillColor=none;fontSize=16;fontFamily=Times New Roman;" parent="1" vertex="1">
          <mxGeometry x="359" y="70" width="110" height="40" as="geometry" />
        </mxCell>
        <mxCell id="vxSceUtqSG5UeswM3cWj-9" value="Odometry" style="rounded=0;whiteSpace=wrap;html=1;fontFamily=Times New Roman;fontSize=24;" parent="1" vertex="1">
          <mxGeometry x="400" y="260" width="120" height="40" as="geometry" />
        </mxCell>
        <mxCell id="vxSceUtqSG5UeswM3cWj-10" value="" style="endArrow=none;html=1;rounded=0;fontFamily=Times New Roman;fontSize=24;" parent="1" edge="1">
          <mxGeometry width="50" height="50" relative="1" as="geometry">
            <mxPoint x="680" y="320" as="sourcePoint" />
            <mxPoint x="680" y="190" as="targetPoint" />
          </mxGeometry>
        </mxCell>
        <mxCell id="vxSceUtqSG5UeswM3cWj-12" value="" style="endArrow=classic;html=1;rounded=0;fontFamily=Times New Roman;fontSize=24;entryX=1;entryY=0.5;entryDx=0;entryDy=0;" parent="1" target="vxSceUtqSG5UeswM3cWj-9" edge="1">
          <mxGeometry width="50" height="50" relative="1" as="geometry">
            <mxPoint x="680" y="280" as="sourcePoint" />
            <mxPoint x="660" y="240" as="targetPoint" />
          </mxGeometry>
        </mxCell>
        <mxCell id="vxSceUtqSG5UeswM3cWj-14" value="" style="endArrow=none;html=1;rounded=0;fontFamily=Times New Roman;fontSize=24;exitX=0;exitY=0.5;exitDx=0;exitDy=0;" parent="1" source="vxSceUtqSG5UeswM3cWj-9" edge="1">
          <mxGeometry width="50" height="50" relative="1" as="geometry">
            <mxPoint x="390" y="260" as="sourcePoint" />
            <mxPoint x="280" y="280" as="targetPoint" />
          </mxGeometry>
        </mxCell>
        <mxCell id="vxSceUtqSG5UeswM3cWj-16" value="" style="endArrow=none;html=1;rounded=0;fontFamily=Times New Roman;fontSize=24;" parent="1" edge="1">
          <mxGeometry width="50" height="50" relative="1" as="geometry">
            <mxPoint x="281" y="280" as="sourcePoint" />
            <mxPoint x="241" y="250" as="targetPoint" />
          </mxGeometry>
        </mxCell>
        <mxCell id="vxSceUtqSG5UeswM3cWj-19" value="&lt;font style=&quot;font-size: 20px;&quot;&gt;$$ T_1 $$&lt;/font&gt;" style="text;html=1;align=center;verticalAlign=middle;resizable=0;points=[];autosize=1;strokeColor=none;fillColor=none;fontSize=24;fontFamily=Times New Roman;" parent="1" vertex="1">
          <mxGeometry x="206" y="215" width="110" height="40" as="geometry" />
        </mxCell>
        <mxCell id="vxSceUtqSG5UeswM3cWj-21" value="" style="endArrow=none;html=1;rounded=0;fontFamily=Times New Roman;fontSize=16;" parent="1" edge="1">
          <mxGeometry width="50" height="50" relative="1" as="geometry">
            <mxPoint x="246" y="280" as="sourcePoint" />
            <mxPoint x="160" y="280" as="targetPoint" />
          </mxGeometry>
        </mxCell>
        <mxCell id="vxSceUtqSG5UeswM3cWj-26" style="edgeStyle=orthogonalEdgeStyle;rounded=0;orthogonalLoop=1;jettySize=auto;html=1;exitX=1;exitY=0.5;exitDx=0;exitDy=0;entryX=0;entryY=0.5;entryDx=0;entryDy=0;fontFamily=Times New Roman;fontSize=16;" parent="1" source="vxSceUtqSG5UeswM3cWj-24" target="LvSJ2q2NzBPmYEEeKZ9J-1" edge="1">
          <mxGeometry relative="1" as="geometry">
            <mxPoint x="230" y="190" as="targetPoint" />
          </mxGeometry>
        </mxCell>
        <mxCell id="vxSceUtqSG5UeswM3cWj-24" value="" style="ellipse;whiteSpace=wrap;html=1;aspect=fixed;fontFamily=Times New Roman;fontSize=16;" parent="1" vertex="1">
          <mxGeometry x="140" y="170" width="40" height="40" as="geometry" />
        </mxCell>
        <mxCell id="vxSceUtqSG5UeswM3cWj-25" value="" style="endArrow=classic;html=1;rounded=0;fontFamily=Times New Roman;fontSize=16;entryX=0.5;entryY=1;entryDx=0;entryDy=0;" parent="1" target="vxSceUtqSG5UeswM3cWj-24" edge="1">
          <mxGeometry width="50" height="50" relative="1" as="geometry">
            <mxPoint x="160" y="320" as="sourcePoint" />
            <mxPoint x="200" y="240" as="targetPoint" />
          </mxGeometry>
        </mxCell>
        <mxCell id="vxSceUtqSG5UeswM3cWj-27" value="" style="endArrow=classic;html=1;rounded=0;fontFamily=Times New Roman;fontSize=16;entryX=0;entryY=0.5;entryDx=0;entryDy=0;" parent="1" target="vxSceUtqSG5UeswM3cWj-24" edge="1">
          <mxGeometry width="50" height="50" relative="1" as="geometry">
            <mxPoint x="80" y="190" as="sourcePoint" />
            <mxPoint x="130" y="160" as="targetPoint" />
          </mxGeometry>
        </mxCell>
        <mxCell id="vxSceUtqSG5UeswM3cWj-28" value="&lt;font style=&quot;font-size: 20px;&quot;&gt;$$ X(k) $$&lt;/font&gt;" style="text;html=1;align=center;verticalAlign=middle;resizable=0;points=[];autosize=1;strokeColor=none;fillColor=none;fontSize=16;fontFamily=Times New Roman;" parent="1" vertex="1">
          <mxGeometry x="146" y="150" width="110" height="40" as="geometry" />
        </mxCell>
        <mxCell id="vxSceUtqSG5UeswM3cWj-29" value="-" style="text;html=1;align=center;verticalAlign=middle;resizable=0;points=[];autosize=1;strokeColor=none;fillColor=none;fontSize=24;fontFamily=Times New Roman;" parent="1" vertex="1">
          <mxGeometry x="130" y="200" width="30" height="40" as="geometry" />
        </mxCell>
        <mxCell id="oK1QB3lHlcJMfwWbtW8S-1" style="edgeStyle=orthogonalEdgeStyle;rounded=0;orthogonalLoop=1;jettySize=auto;html=1;exitX=1;exitY=0.5;exitDx=0;exitDy=0;entryX=0;entryY=0.5;entryDx=0;entryDy=0;" parent="1" source="LvSJ2q2NzBPmYEEeKZ9J-1" target="vwBNr93nyoPtxCEEGqwH-9" edge="1">
          <mxGeometry relative="1" as="geometry" />
        </mxCell>
        <mxCell id="LvSJ2q2NzBPmYEEeKZ9J-1" value="Estimator" style="rounded=0;whiteSpace=wrap;html=1;fontFamily=Times New Roman;fontSize=24;" parent="1" vertex="1">
          <mxGeometry x="230" y="170" width="110" height="40" as="geometry" />
        </mxCell>
        <mxCell id="vwBNr93nyoPtxCEEGqwH-1" value="Camera" style="rounded=0;whiteSpace=wrap;html=1;fontFamily=Times New Roman;fontSize=24;" parent="1" vertex="1">
          <mxGeometry x="400" y="409" width="120" height="40" as="geometry" />
        </mxCell>
        <mxCell id="vwBNr93nyoPtxCEEGqwH-2" value="" style="endArrow=classic;html=1;rounded=0;fontFamily=Times New Roman;fontSize=24;entryX=1;entryY=0.5;entryDx=0;entryDy=0;" parent="1" target="vwBNr93nyoPtxCEEGqwH-1" edge="1">
          <mxGeometry width="50" height="50" relative="1" as="geometry">
            <mxPoint x="680" y="429" as="sourcePoint" />
            <mxPoint x="660" y="389" as="targetPoint" />
          </mxGeometry>
        </mxCell>
        <mxCell id="vwBNr93nyoPtxCEEGqwH-3" value="" style="endArrow=none;html=1;rounded=0;fontFamily=Times New Roman;fontSize=24;exitX=0;exitY=0.5;exitDx=0;exitDy=0;" parent="1" source="vwBNr93nyoPtxCEEGqwH-1" edge="1">
          <mxGeometry width="50" height="50" relative="1" as="geometry">
            <mxPoint x="390" y="409" as="sourcePoint" />
            <mxPoint x="280" y="429" as="targetPoint" />
          </mxGeometry>
        </mxCell>
        <mxCell id="vwBNr93nyoPtxCEEGqwH-4" value="" style="endArrow=none;html=1;rounded=0;fontFamily=Times New Roman;fontSize=24;" parent="1" edge="1">
          <mxGeometry width="50" height="50" relative="1" as="geometry">
            <mxPoint x="281" y="429" as="sourcePoint" />
            <mxPoint x="241" y="399" as="targetPoint" />
          </mxGeometry>
        </mxCell>
        <mxCell id="vwBNr93nyoPtxCEEGqwH-5" value="" style="endArrow=none;html=1;rounded=0;fontFamily=Times New Roman;fontSize=16;" parent="1" edge="1">
          <mxGeometry width="50" height="50" relative="1" as="geometry">
            <mxPoint x="246" y="429" as="sourcePoint" />
            <mxPoint x="160" y="429" as="targetPoint" />
          </mxGeometry>
        </mxCell>
        <mxCell id="vwBNr93nyoPtxCEEGqwH-6" value="&lt;span style=&quot;font-size: 20px;&quot;&gt;$$ T_2 $$&lt;/span&gt;" style="text;html=1;align=center;verticalAlign=middle;resizable=0;points=[];autosize=1;strokeColor=none;fillColor=none;fontSize=24;fontFamily=Times New Roman;" parent="1" vertex="1">
          <mxGeometry x="206" y="364" width="110" height="40" as="geometry" />
        </mxCell>
        <mxCell id="vwBNr93nyoPtxCEEGqwH-7" value="" style="endArrow=none;html=1;rounded=0;" parent="1" edge="1">
          <mxGeometry width="50" height="50" relative="1" as="geometry">
            <mxPoint x="680" y="430" as="sourcePoint" />
            <mxPoint x="680" y="280" as="targetPoint" />
          </mxGeometry>
        </mxCell>
        <mxCell id="vwBNr93nyoPtxCEEGqwH-8" value="" style="endArrow=none;html=1;rounded=0;" parent="1" edge="1">
          <mxGeometry width="50" height="50" relative="1" as="geometry">
            <mxPoint x="160" y="430" as="sourcePoint" />
            <mxPoint x="160" y="280" as="targetPoint" />
          </mxGeometry>
        </mxCell>
        <mxCell id="vwBNr93nyoPtxCEEGqwH-10" style="edgeStyle=orthogonalEdgeStyle;rounded=0;orthogonalLoop=1;jettySize=auto;html=1;exitX=1;exitY=0.5;exitDx=0;exitDy=0;entryX=0;entryY=0.5;entryDx=0;entryDy=0;" parent="1" source="vwBNr93nyoPtxCEEGqwH-9" target="vxSceUtqSG5UeswM3cWj-1" edge="1">
          <mxGeometry relative="1" as="geometry" />
        </mxCell>
        <mxCell id="oK1QB3lHlcJMfwWbtW8S-2" style="edgeStyle=orthogonalEdgeStyle;rounded=0;orthogonalLoop=1;jettySize=auto;html=1;entryX=0.5;entryY=0;entryDx=0;entryDy=0;" parent="1" target="LvSJ2q2NzBPmYEEeKZ9J-1" edge="1">
          <mxGeometry relative="1" as="geometry">
            <mxPoint x="530" y="190" as="sourcePoint" />
            <Array as="points">
              <mxPoint x="530" y="110" />
              <mxPoint x="285" y="110" />
            </Array>
          </mxGeometry>
        </mxCell>
        <mxCell id="vwBNr93nyoPtxCEEGqwH-9" value="Controller" style="rounded=0;whiteSpace=wrap;html=1;fontFamily=Times New Roman;fontSize=24;" parent="1" vertex="1">
          <mxGeometry x="405" y="170" width="110" height="40" as="geometry" />
        </mxCell>
        <mxCell id="5t99X8zQDliqrTYRbF4_-1" value="Accelerometer" style="rounded=0;whiteSpace=wrap;html=1;fontFamily=Times New Roman;fontSize=24;" vertex="1" parent="1">
          <mxGeometry x="375" y="329" width="170" height="40" as="geometry" />
        </mxCell>
        <mxCell id="5t99X8zQDliqrTYRbF4_-2" value="" style="endArrow=none;html=1;rounded=0;fontFamily=Times New Roman;fontSize=24;exitX=0;exitY=0.5;exitDx=0;exitDy=0;" edge="1" source="5t99X8zQDliqrTYRbF4_-1" parent="1">
          <mxGeometry width="50" height="50" relative="1" as="geometry">
            <mxPoint x="390" y="329" as="sourcePoint" />
            <mxPoint x="280" y="349" as="targetPoint" />
          </mxGeometry>
        </mxCell>
        <mxCell id="5t99X8zQDliqrTYRbF4_-3" value="" style="endArrow=none;html=1;rounded=0;fontFamily=Times New Roman;fontSize=24;" edge="1" parent="1">
          <mxGeometry width="50" height="50" relative="1" as="geometry">
            <mxPoint x="281" y="349" as="sourcePoint" />
            <mxPoint x="241" y="319" as="targetPoint" />
          </mxGeometry>
        </mxCell>
        <mxCell id="5t99X8zQDliqrTYRbF4_-5" value="" style="endArrow=none;html=1;rounded=0;fontFamily=Times New Roman;fontSize=16;" edge="1" parent="1">
          <mxGeometry width="50" height="50" relative="1" as="geometry">
            <mxPoint x="246" y="349" as="sourcePoint" />
            <mxPoint x="160" y="349" as="targetPoint" />
          </mxGeometry>
        </mxCell>
        <mxCell id="5t99X8zQDliqrTYRbF4_-6" value="" style="endArrow=classic;html=1;rounded=0;fontFamily=Times New Roman;fontSize=24;entryX=1;entryY=0.5;entryDx=0;entryDy=0;" edge="1" target="5t99X8zQDliqrTYRbF4_-1" parent="1">
          <mxGeometry width="50" height="50" relative="1" as="geometry">
            <mxPoint x="680" y="349" as="sourcePoint" />
            <mxPoint x="660" y="309" as="targetPoint" />
          </mxGeometry>
        </mxCell>
        <mxCell id="5t99X8zQDliqrTYRbF4_-7" value="&lt;blockquote style=&quot;&quot;&gt;&lt;font style=&quot;font-size: 20px;&quot;&gt;$$ \hat{X}(k) $$&lt;/font&gt;&lt;/blockquote&gt;" style="text;html=1;align=center;verticalAlign=middle;resizable=0;points=[];autosize=1;strokeColor=none;fillColor=none;fontSize=16;fontFamily=Times New Roman;" vertex="1" parent="1">
          <mxGeometry x="256" y="135" width="240" height="70" as="geometry" />
        </mxCell>
        <mxCell id="5t99X8zQDliqrTYRbF4_-9" value="&lt;font style=&quot;font-size: 20px;&quot;&gt;$$ T_1 $$&lt;/font&gt;" style="text;html=1;align=center;verticalAlign=middle;resizable=0;points=[];autosize=1;strokeColor=none;fillColor=none;fontSize=24;fontFamily=Times New Roman;" vertex="1" parent="1">
          <mxGeometry x="206" y="290" width="110" height="40" as="geometry" />
        </mxCell>
        <mxCell id="5t99X8zQDliqrTYRbF4_-12" value="" style="endArrow=none;html=1;rounded=0;" edge="1" parent="1">
          <mxGeometry width="50" height="50" relative="1" as="geometry">
            <mxPoint x="370" y="190" as="sourcePoint" />
            <mxPoint x="420" y="220" as="targetPoint" />
            <Array as="points">
              <mxPoint x="370" y="240" />
              <mxPoint x="390" y="240" />
            </Array>
          </mxGeometry>
        </mxCell>
        <mxCell id="5t99X8zQDliqrTYRbF4_-13" value="" style="endArrow=classic;html=1;rounded=0;entryX=0.5;entryY=0;entryDx=0;entryDy=0;" edge="1" parent="1" target="vxSceUtqSG5UeswM3cWj-9">
          <mxGeometry width="50" height="50" relative="1" as="geometry">
            <mxPoint x="420" y="240" as="sourcePoint" />
            <mxPoint x="470" y="190" as="targetPoint" />
            <Array as="points">
              <mxPoint x="460" y="240" />
            </Array>
          </mxGeometry>
        </mxCell>
        <mxCell id="5t99X8zQDliqrTYRbF4_-14" value="&lt;span style=&quot;font-size: 20px;&quot;&gt;$$ T_2 $$&lt;/span&gt;" style="text;html=1;align=center;verticalAlign=middle;resizable=0;points=[];autosize=1;strokeColor=none;fillColor=none;fontSize=24;fontFamily=Times New Roman;" vertex="1" parent="1">
          <mxGeometry x="386" y="205" width="110" height="40" as="geometry" />
        </mxCell>
        <mxCell id="5t99X8zQDliqrTYRbF4_-15" value="&lt;font style=&quot;font-size: 20px;&quot;&gt;$$ X(0) $$&lt;/font&gt;" style="text;html=1;align=center;verticalAlign=middle;resizable=0;points=[];autosize=1;strokeColor=none;fillColor=none;fontSize=16;fontFamily=Times New Roman;" vertex="1" parent="1">
          <mxGeometry x="36" y="150" width="110" height="40" as="geometry" />
        </mxCell>
      </root>
    </mxGraphModel>
  </diagram>
</mxfile>
